<svg width="50" height="50" viewBox="0 0 50 50" fill="none" xmlns="http://www.w3.org/2000/svg">
<path d="M25 4.16669C13.5 4.16669 4.16663 13.5 4.16663 25C4.16663 36.5 13.5 45.8334 25 45.8334C36.5 45.8334 45.8333 36.5 45.8333 25C45.8333 13.5 36.5 4.16669 25 4.16669ZM14.7291 38.0834C15.625 36.2084 21.0833 34.375 25 34.375C28.9166 34.375 34.3958 36.2084 35.2708 38.0834C32.4375 40.3334 28.875 41.6667 25 41.6667C21.125 41.6667 17.5625 40.3334 14.7291 38.0834ZM38.25 35.0625C35.2708 31.4375 28.0416 30.2084 25 30.2084C21.9583 30.2084 14.7291 31.4375 11.75 35.0625C9.62496 32.2709 8.33329 28.7917 8.33329 25C8.33329 15.8125 15.8125 8.33335 25 8.33335C34.1875 8.33335 41.6666 15.8125 41.6666 25C41.6666 28.7917 40.375 32.2709 38.25 35.0625ZM25 12.5C20.9583 12.5 17.7083 15.75 17.7083 19.7917C17.7083 23.8334 20.9583 27.0834 25 27.0834C29.0416 27.0834 32.2916 23.8334 32.2916 19.7917C32.2916 15.75 29.0416 12.5 25 12.5ZM25 22.9167C23.2708 22.9167 21.875 21.5209 21.875 19.7917C21.875 18.0625 23.2708 16.6667 25 16.6667C26.7291 16.6667 28.125 18.0625 28.125 19.7917C28.125 21.5209 26.7291 22.9167 25 22.9167Z" fill="black"/>
</svg>
